<svg width="20" height="20" viewBox="0 0 20 20" fill="none" xmlns="http://www.w3.org/2000/svg">
<rect x="10" y="2" width="1" height="1" fill="#274C07"/>
<rect x="9" y="2" width="1" height="1" fill="#306C08"/>
<rect x="8" y="2" width="1" height="1" fill="#1B3301"/>
<rect x="9" y="3" width="1" height="1" fill="#1B3301"/>
<rect x="8" y="3" width="1" height="1" fill="#150D1A"/>
<rect x="9" y="1" width="1" height="1" fill="#274C07"/>
<rect x="10" y="1" width="2" height="1" fill="#6AC800"/>
<rect x="11" y="2" width="1" height="1" fill="#150D1A"/>
<rect x="7" y="2" width="1" height="2" fill="#150D1A"/>
<rect x="8" y="1" width="1" height="1" fill="#150D1A"/>
<rect x="12" y="1" width="1" height="1" fill="#150D1A"/>
<rect x="9" width="3" height="1" fill="#150D1A"/>
<rect x="10" y="3" width="1" height="1" fill="#150D1A"/>
<rect x="17" y="6" width="1" height="12" fill="#150D1A"/>
<rect x="3" y="18" width="1" height="1" fill="#150D1A"/>
<rect x="2" y="6" width="1" height="12" fill="#150D1A"/>
<rect x="16" y="18" width="1" height="1" fill="#150D1A"/>
<rect x="4" y="19" width="12" height="1" fill="#150D1A"/>
<rect x="11" y="4" width="5" height="1" fill="#150D1A"/>
<rect x="3" y="5" width="1" height="1" fill="#150D1A"/>
<rect x="16" y="5" width="1" height="1" fill="#150D1A"/>
<rect x="4" y="4" width="7" height="1" fill="#150D1A"/>
<rect x="17" y="9" width="9" height="2" transform="rotate(90 17 9)" fill="#CC0001"/>
<rect x="15" y="19" width="11" height="3" transform="rotate(180 15 19)" fill="#CC0001"/>
<rect x="12" y="14" width="3" height="2" fill="#CC0001"/>
<rect x="10" y="15" width="2" height="1" fill="#CC0001"/>
<rect x="13" y="11" width="2" height="3" fill="#CC0001"/>
<rect x="13" y="16" width="3" height="3" fill="#CC0001"/>
<rect x="7" y="9" width="5" height="6" fill="#FF0101"/>
<rect x="4" y="11" width="3" height="5" fill="#FF0101"/>
<rect x="3" y="13" width="1" height="5" fill="#FF0101"/>
<rect x="12" y="9" width="1" height="5" fill="#FF0101"/>
<rect x="13" y="6" width="2" height="5" fill="#FF0101"/>
<rect x="7" y="15" width="3" height="1" fill="#FF0101"/>
<rect x="10" y="7" width="3" height="2" fill="#FF0101"/>
<rect x="15" y="6" width="2" height="3" fill="#FF0101"/>
<rect x="4" y="5" width="9" height="2" fill="#FB6D01"/>
<rect x="13" y="5" width="3" height="1" fill="#FB6D01"/>
<rect x="3" y="7" width="7" height="2" fill="#FB6D01"/>
<rect x="3" y="6" width="1" height="1" fill="#FB6D01"/>
<rect x="3" y="9" width="1" height="4" fill="#FB6D01"/>
<rect x="4" y="9" width="3" height="2" fill="#FB6D01"/>
<rect x="8" y="3" width="1" height="1" fill="#306C08"/>
<rect x="5" y="6" width="1" height="1" fill="#EED600"/>
<rect x="4" y="7" width="2" height="1" fill="#EED600"/>
</svg>
